<svg width="34" height="34" viewBox="0 0 34 34" fill="none" xmlns="http://www.w3.org/2000/svg">
<g filter="url(#filter0_d_5_128)">
<path d="M25.6408 3.63191C23.3304 1.32148 20.2592 0.0492554 16.9916 0.0492554C16.9914 0.0492554 16.9907 0.0492554 16.9905 0.0492554C15.3743 0.0494478 13.7994 0.362355 12.3097 0.979509C10.8199 1.59666 9.48511 2.48901 8.34221 3.63191C6.03197 5.94215 4.75976 9.01387 4.75976 12.2811C4.75976 14.2296 5.22989 16.1659 6.12069 17.8911L4.06466 23.7648C3.91976 24.1791 4.02233 24.6294 4.33292 24.9398C4.55019 25.1573 4.83615 25.2727 5.1302 25.2727C5.25625 25.2727 5.38365 25.2516 5.50796 25.2081L11.3816 23.1522C13.1068 24.043 15.0432 24.5132 16.9916 24.5132C20.2589 24.5132 23.3304 23.2408 25.6408 20.9305C27.9511 18.6203 29.2235 15.5486 29.2235 12.2813C29.2235 9.01387 27.9513 5.94215 25.6408 3.63191ZM24.5947 19.8844C22.5639 21.9154 19.8636 23.0337 16.9916 23.0337C15.2346 23.0337 13.4892 22.5992 11.9439 21.7767C11.6637 21.6277 11.3325 21.6021 11.0352 21.7062L5.69886 23.5739L7.56668 18.2375C7.67079 17.9398 7.64501 17.6086 7.49606 17.3286C6.67376 15.7837 6.23904 14.0383 6.23904 12.2811C6.23904 9.40914 7.3575 6.70883 9.38832 4.67801C11.4189 2.64739 14.1189 1.52893 16.9907 1.52854H16.9916C19.8638 1.52854 22.5639 2.647 24.5947 4.67801C26.6257 6.70883 27.7442 9.40895 27.7442 12.2811C27.7442 15.1533 26.6257 17.8536 24.5947 19.8844Z" fill="white"/>
<path d="M21.5374 13.3738C20.9748 12.8111 20.0591 12.8111 19.4964 13.3738L18.881 13.9892C17.3528 13.1565 16.1162 11.9199 15.2833 10.3917L15.8988 9.77632C16.4617 9.21362 16.4617 8.29799 15.8988 7.7353L14.2403 6.07685C13.6776 5.51416 12.762 5.51416 12.1993 6.07685L10.8726 7.40353C10.1127 8.16348 10.0748 9.46995 10.7658 11.0824C11.3658 12.4824 12.4639 14.0212 13.8577 15.415C15.2516 16.8088 16.7903 17.9069 18.1903 18.5069C18.9564 18.8352 19.6533 18.999 20.2554 18.999C20.9207 18.999 21.4703 18.7991 21.8692 18.4001L23.1959 17.0732V17.0734C23.4686 16.8008 23.6187 16.4384 23.6187 16.0529C23.6187 15.6673 23.4686 15.3049 23.1959 15.0324L21.5374 13.3738ZM20.8231 17.354C20.6062 17.5709 19.9392 17.6469 18.7732 17.1473C17.542 16.6197 16.1678 15.6328 14.9039 14.3689C13.6399 13.1049 12.6533 11.7309 12.1256 10.4997C11.6258 9.3337 11.7018 8.66651 11.9187 8.44964L13.22 7.14836L14.8273 8.75581L14.0569 9.52634C13.7086 9.87465 13.6245 10.4029 13.8479 10.8409C14.8607 12.8269 16.4459 14.412 18.4319 15.4248C18.87 15.6482 19.3983 15.5643 19.7466 15.2158L20.5169 14.4455L22.1244 16.0529L20.8231 17.354Z" fill="white"/>
</g>
<defs>
<filter id="filter0_d_5_128" x="0" y="0.0492554" width="33.2234" height="33.2235" filterUnits="userSpaceOnUse" color-interpolation-filters="sRGB">
<feFlood flood-opacity="0" result="BackgroundImageFix"/>
<feColorMatrix in="SourceAlpha" type="matrix" values="0 0 0 0 0 0 0 0 0 0 0 0 0 0 0 0 0 0 127 0" result="hardAlpha"/>
<feOffset dy="4"/>
<feGaussianBlur stdDeviation="2"/>
<feComposite in2="hardAlpha" operator="out"/>
<feColorMatrix type="matrix" values="0 0 0 0 0 0 0 0 0 0 0 0 0 0 0 0 0 0 0.25 0"/>
<feBlend mode="normal" in2="BackgroundImageFix" result="effect1_dropShadow_5_128"/>
<feBlend mode="normal" in="SourceGraphic" in2="effect1_dropShadow_5_128" result="shape"/>
</filter>
</defs>
</svg>
